<svg xmlns="http://www.w3.org/2000/svg" width="153.577" height="178.992" viewBox="0 0 153.577 178.992">
  <g id="undraw_authentication_re_svpt" transform="translate(0 0)">
    <path id="Path_128" data-name="Path 128" d="M477.13,199.278h-143.9a4.842,4.842,0,0,1-4.836-4.836V138.036a4.842,4.842,0,0,1,4.836-4.836h143.9a4.842,4.842,0,0,1,4.836,4.836v56.406a4.842,4.842,0,0,1-4.836,4.836Z" transform="translate(-328.39 -133.199)" fill="#f2f2f2"/>
    <path id="Path_129" data-name="Path 129" d="M451.387,204.016h-87.5a24.621,24.621,0,0,1-24.594-24.594V168.7a24.622,24.622,0,0,1,24.594-24.594h98.22A24.621,24.621,0,0,1,486.7,168.7,35.353,35.353,0,0,1,451.387,204.016Z" transform="translate(-336.209 -141.022)" fill="#fff"/>
    <path id="Path_130" data-name="Path 130" d="M505.944,194.854H448.106a1.247,1.247,0,0,1,0-2.495h57.838a1.247,1.247,0,0,1,0,2.495Z" transform="translate(-413.337 -175.619)" fill="#e6e6e6"/>
    <path id="Path_131" data-name="Path 131" d="M535.223,241.884H448.106a1.247,1.247,0,0,1,0-2.495h87.117a1.247,1.247,0,0,1,0,2.495Z" transform="translate(-413.337 -209.342)" fill="#e6e6e6"/>
    <path id="Path_132" data-name="Path 132" d="M535.223,288.915H448.106a1.247,1.247,0,0,1,0-2.495h87.117a1.247,1.247,0,0,1,0,2.495Z" transform="translate(-413.337 -243.065)" fill="#e6e6e6"/>
    <path id="Path_133" data-name="Path 133" d="M535.223,288.915H448.106a1.247,1.247,0,0,1,0-2.495h87.117a1.247,1.247,0,0,1,0,2.495Z" transform="translate(-413.337 -243.065)" fill="#e6e6e6"/>
    <path id="Path_134" data-name="Path 134" d="M634.1,246.767a2.572,2.572,0,0,0,3.115,2.418l4.757,7.8,2.024-4.3-4.827-6.752a2.586,2.586,0,0,0-5.068.826Z" transform="translate(-547.593 -212.698)" fill="#ffb6b6"/>
    <path id="Path_135" data-name="Path 135" d="M681.106,284.2l-16.392-8.892-5.17-4.851s-2.248-.6-1.42-1.333-1.53-1.436-1.53-1.436l-2.776-2.6-3.944,2.791,1.141,1.769s-.079,2.929,1.526,2.366,1.2,1.866,1.2,1.866l9.578,14.847Z" transform="translate(-558.907 -227.767)" fill="#3f3d56"/>
    <circle id="Ellipse_26" data-name="Ellipse 26" cx="16.011" cy="16.011" r="16.011" transform="translate(57.799 16.033)" fill="#ec4899"/>
    <path id="Path_136" data-name="Path 136" d="M419.593,579.06h-3.329l-1.584-12.841h4.914Z" transform="translate(-297.342 -406.003)" fill="#ffb6b6"/>
    <path id="Path_137" data-name="Path 137" d="M737.095,743.986h-2.388l-.426-2.254-1.091,2.254h-6.332a1.423,1.423,0,0,1-.809-2.595l5.057-3.492V735.62l5.319.318Z" transform="translate(-613.087 -565.16)" fill="#2f2e41"/>
    <path id="Path_138" data-name="Path 138" d="M325.491,579.06h-3.329l-1.584-12.841h4.914Z" transform="translate(-229.867 -406.003)" fill="#ffb6b6"/>
    <path id="Path_139" data-name="Path 139" d="M642.992,743.986H640.6l-.426-2.254-1.091,2.254h-6.332a1.423,1.423,0,0,1-.809-2.595L637,737.9V735.62l5.319.318Z" transform="translate(-545.612 -565.16)" fill="#2f2e41"/>
    <rect id="Rectangle_79" data-name="Rectangle 79" width="16.803" height="19.13" transform="translate(101.914 75.941)" fill="#ffb6b6"/>
    <path id="Path_140" data-name="Path 140" d="M632.287,434.927l-2.844,3.361-4.912,10.341-12.376,29.447-2.617,6.228,2.114,11.009s.342,7.756.342,9.026a5.171,5.171,0,0,0,2.162,4.018l1.586,8.262,15.382-.646s-.537-9.107-3.758-11.4-4.7-14.269-4.7-14.269l-1.75-5.312,17.062-20.225.11,7.07.053,3.422s-2.5,22.256.414,26.576.059,3.811.059,3.811l.139,8.91,18.225.129-4.021-25.652s-2.042-1.612-.949-3.232-1.059-3.605-1.059-3.605l.965-20.026s-1.068-3.459.188-3.909.165-3.424.165-3.424l.187-3.876L648.7,438.934Z" transform="translate(-529.985 -349.551)" fill="#2f2e41"/>
    <path id="Path_141" data-name="Path 141" d="M695.7,327.554l1.81-5.429,1.293-1.81.517-5.17c0-13.96-3.114-11.635-3.114-11.635l-1.8-4.91-8.273-.259-5.3,5.041-4.395,1.551-1.721,8.942,3.143,9.542.776,5.17c-1.479,2.731-1.354,1.439-.129,3.49l14.606,4.007c5.17,1.81,5.17-2.844,4.133-4.007S695.7,327.554,695.7,327.554Z" transform="translate(-576.722 -251.614)" fill="#3f3d56"/>
    <circle id="Ellipse_27" data-name="Ellipse 27" cx="7.669" cy="7.669" r="7.669" transform="translate(104.81 29.655)" fill="#ffb6b6"/>
    <path id="Path_142" data-name="Path 142" d="M699.506,307.834" transform="translate(-594.496 -258.42)" fill="#2f2e41"/>
    <path id="Path_143" data-name="Path 143" d="M712.015,251.8a.942.942,0,0,1-.525,1.378c-1.029.341-1.662,1.337-2.4,2.133s-1.923,1.453-2.864.913-1-1.91-1.789-2.655a2.49,2.49,0,0,0-2.937-.085l-.027.017a.948.948,0,0,1-1.451-.965q.473-2.515.945-5.029a16.911,16.911,0,0,1-3.539,5.351,3.892,3.892,0,0,1-1.536,1.081c-.538.171-1.06-.385-1.582-.284,1.3-1.135,5.661-8.409,4.881-13.272l-2.753.31a2.531,2.531,0,0,0-.615-1.161,2.975,2.975,0,0,1-.158,1.249l-1.15.129a2.472,2.472,0,0,1-1.569-.168c-.763-.465-.786-1.567-.569-2.435a8.965,8.965,0,0,1,4.925-5.744c2.36-1.1,3.058,1.355,5.545.569,4.912-1.551,8.676,1.1,10,6.023C713.962,243.278,713.153,247.66,712.015,251.8Z" transform="translate(-589.298 -204.236)" fill="#2f2e41"/>
    <path id="Path_144" data-name="Path 144" d="M807.219,740.434h-9.39l-.04-.073c-.12-.218-.236-.448-.344-.686a25.844,25.844,0,0,1-1.737-6.529l-.272-1.575a.973.973,0,0,1,1.531-.951q2.141,1.558,4.283,3.112c.541.393,1.158.849,1.75,1.341.057-.277.117-.555.176-.829a.973.973,0,0,1,1.777-.307l1.1,1.765a6.433,6.433,0,0,1,1.365,3.929.212.212,0,0,1,0,.05,3.1,3.1,0,0,1-.159.66Z" transform="translate(-663.271 -561.441)" fill="#f0f0f0"/>
    <path id="Path_146" data-name="Path 146" d="M557.74,288.774l-9.815-8.289a1.66,1.66,0,0,1-.2-2.336l1.807-2.139a1.66,1.66,0,0,1,2.336-.2l9.815,8.289a1.66,1.66,0,0,1,.2,2.336l-1.807,2.139A1.66,1.66,0,0,1,557.74,288.774Z" transform="translate(-485.385 -235.179)" fill="#3f3d56"/>
    <path id="Path_147" data-name="Path 147" d="M550.7,279.445a.894.894,0,0,0,.106,1.259l9.815,8.289a.894.894,0,0,0,1.259-.106l1.807-2.139a.894.894,0,0,0-.106-1.259l-9.815-8.289a.894.894,0,0,0-1.259.106Z" transform="translate(-487.645 -236.303)" fill="#fff"/>
    <path id="Path_148" data-name="Path 148" d="M565.955,287.635a.377.377,0,0,1-.3.158l-1.542.035a.377.377,0,0,1-.017-.755l1.009-.023-.994-2.622a.377.377,0,1,1,.706-.267L566,287.282a.377.377,0,0,1-.04.345Z" transform="translate(-497.138 -241.271)" fill="#ec4899"/>
    <path id="Path_149" data-name="Path 149" d="M564.749,299.308a2.572,2.572,0,0,1,2.065,3.359l7.24,5.577-4.491,1.545-6.187-5.533a2.586,2.586,0,0,1,1.372-4.949Z" transform="translate(-495.734 -252.284)" fill="#ffb6b6"/>
    <path id="Path_150" data-name="Path 150" d="M614.643,309.129l-18.536,11.4s-7.474-2.765-6.013-4.045-3.189-2.146-3.189-2.146l-5.137-3.456-2.981,3.464s.543,5.627,1.467,4.652,2.305,1.687,2.305,1.687.408,2.972,3.039,2.224S595.287,330,595.287,330L618.1,321.49Z" transform="translate(-507.935 -259.349)" fill="#3f3d56"/>
    <path id="Path_151" data-name="Path 151" d="M575.145,236.322a1.384,1.384,0,0,1-1.107-.554l-3.395-4.527a1.384,1.384,0,1,1,2.215-1.661l2.221,2.961,5.7-8.557a1.384,1.384,0,1,1,2.3,1.536l-6.79,10.185a1.385,1.385,0,0,1-1.113.616Z" transform="translate(-501.897 -197.854)" fill="#fff"/>
  </g>
</svg>
