<svg xmlns="http://www.w3.org/2000/svg" width="256.535" height="166.582" viewBox="0 0 256.535 166.582">
  <g id="undraw_newsletter_re_wrob" transform="translate(0 -0.002)">
    <path id="Path_154" data-name="Path 154" d="M890.176,383.243a26.309,26.309,0,0,1-24.287,26.232c-.221.017-.447.034-.673.044v-24.97a1.673,1.673,0,0,0-.621-1.3.421.421,0,0,0-.074-.061.629.629,0,0,0-.078-.054,1.687,1.687,0,0,0-1.609-.118l-.28-.614a2.363,2.363,0,0,1,.975-.212l-19.213-16.551c.148-.169.3-.334.459-.5a26.312,26.312,0,0,1,45.4,18.106Z" transform="translate(-633.641 -305.031)" fill="#f2f2f2"/>
    <path id="Path_155" data-name="Path 155" d="M239.376,444.683a3.4,3.4,0,0,1,3.282-4.055l15.166-18.053,3.786,4.841-15.456,16.8a3.421,3.421,0,0,1-6.778.466Z" transform="translate(-232.705 -348.532)" fill="#ffb8b8"/>
    <path id="Path_156" data-name="Path 156" d="M404.543,419.282a3.556,3.556,0,0,0-.281.483L387.7,422.133l-2.515-3.192-5.314,3.165,5,7.788,20.2-5.953a3.54,3.54,0,1,0-.522-4.658Z" transform="translate(-325.855 -345.352)" fill="#ffb8b8"/>
    <path id="Path_157" data-name="Path 157" d="M149.426,375.8l2.93,2.918,12.649-9.914L160.68,364.5Z" transform="translate(-99.025 -241.552)" fill="#ffb8b8"/>
    <path id="Path_158" data-name="Path 158" d="M0,0H13V5.021H5.021A5.021,5.021,0,0,1,0,0H0Z" transform="translate(56.274 145.514) rotate(-135.123)" fill="#2f2e41"/>
    <path id="Path_159" data-name="Path 159" d="M103.245,449.642h4.135l1.967-15.95h-6.1Z" transform="translate(-68.42 -287.406)" fill="#ffb8b8"/>
    <path id="Path_160" data-name="Path 160" d="M0,0H13V5.021H5.021A5.021,5.021,0,0,1,0,0H0Z" transform="translate(46.934 166.076) rotate(179.997)" fill="#2f2e41"/>
    <path id="Path_161" data-name="Path 161" d="M310.22,527.487l-4.71-34.737a43.5,43.5,0,0,1,.675-15.757c.967-4.153,2.272-7.029,3.881-8.549a1.592,1.592,0,0,1,.925-.423l15.552-1.62a1.587,1.587,0,0,1,1.521.76l.511.852a1.583,1.583,0,0,1,.149.328l3.288,10.193a1.22,1.22,0,0,0,.61.717c5.177,2.643,21.993,11.565,21.031,15.415-.9,3.617-9.37,9.481-11.943,11.192a1.572,1.572,0,0,1-1.767-.013l-4.271-2.922a1.583,1.583,0,0,1-.045-2.581l2.945-2.17a1.231,1.231,0,0,0-.323-2.153l-15.819-5.551a1.231,1.231,0,0,0-1.635,1.061l-2.917,35.648a1.587,1.587,0,0,1-1.5,1.452l-4.513.226-.082,0a1.573,1.573,0,0,1-1.566-1.37Z" transform="translate(-276.294 -377.57)" fill="#2f2e41"/>
    <circle id="Ellipse_28" data-name="Ellipse 28" cx="8.284" cy="8.284" r="8.284" transform="translate(32.774 43.501)" fill="#ffb8b8"/>
    <path id="Path_162" data-name="Path 162" d="M306.5,415.578l-6.1-22.25.1-.07c.131-.088,13.275-8.768,28.664-1.773l.279.16-3.613,23.094a2.289,2.289,0,0,1-2.174,1.948l-14.869.572-.09,0a2.277,2.277,0,0,1-2.2-1.683Z" transform="translate(-273.186 -326.125)" fill="#ccc"/>
    <path id="Path_163" data-name="Path 163" d="M288.967,416.886l-5.079-5.841a1.581,1.581,0,0,1-.036-2.035l5.309-6.559,4.076,1.112,2.161,7.563-3.94,5.629a1.574,1.574,0,0,1-1.214.673l-.085,0A1.572,1.572,0,0,1,288.967,416.886Z" transform="translate(-261.987 -335.197)" fill="#ccc"/>
    <path id="Path_164" data-name="Path 164" d="M372.849,411.6a1.574,1.574,0,0,1-1.214-.673L367.7,405.3l1.9-7.961,3.753-1.023.7.334,5.2,6.535a1.581,1.581,0,0,1-.036,2.035l-5.079,5.84a1.572,1.572,0,0,1-1.192.544Z" transform="translate(-317.784 -331.132)" fill="#ccc"/>
    <path id="Path_165" data-name="Path 165" d="M610.05,306.653a.331.331,0,0,1-.081.229.337.337,0,0,1-.475.037l-1.13-.975-19.213-16.551-53.887-46.429a1.693,1.693,0,0,0-2.206,0l-72.567,63.045-.654.567a.326.326,0,0,1-.084.054.338.338,0,0,1-.172.027.346.346,0,0,1-.219-.111.336.336,0,0,1,.03-.476l.091-.081,73.133-63.534a2.377,2.377,0,0,1,3.09-.007l53.9,46.443,20.322,17.513A.343.343,0,0,1,610.05,306.653Z" transform="translate(-378.475 -228.789)" fill="#3f3d56"/>
    <path id="Path_166" data-name="Path 166" d="M561.889,290.889,561,288.447l-3.056-8.433-6.584-18.157-7.36-20.3-13.273-36.607a2.872,2.872,0,0,0-3.673-1.717l-76.739,27.824a2.871,2.871,0,0,0-1.717,3.673l18.818,51.9.32.887,19.752,8.952,5.552,2.516.9.408,23.507,10.655.911-.331,15.418-5.589,23.257-8.432,3.134-1.137A2.873,2.873,0,0,0,561.889,290.889Z" transform="translate(-371.286 -203.065)" fill="#e6e6e6"/>
    <path id="Path_167" data-name="Path 167" d="M584.865,329.815a4.224,4.224,0,0,0-5.4-2.526L549.1,338.3l-14.662,5.316a4.216,4.216,0,0,0,2.874,7.927l11.789-4.274,33.241-12.052a4.224,4.224,0,0,0,2.526-5.4Z" transform="translate(-426.44 -285.219)" fill="#fff"/>
    <path id="Path_168" data-name="Path 168" d="M600.712,373.536a4.224,4.224,0,0,0-5.4-2.526l-5.144,1.865L559.6,383.958l-9.316,3.376a4.217,4.217,0,0,0,2.874,7.93l6.442-2.337,38.587-13.991c.088-.03.172-.067.256-.1A4.216,4.216,0,0,0,600.712,373.536Z" transform="translate(-436.941 -314.193)" fill="#fff"/>
    <path id="Path_169" data-name="Path 169" d="M616.736,417.716a4.22,4.22,0,0,0-5.4-2.526l-14.426,5.232-11.168,4.051L570.219,430.1l-3.913,1.42a4.225,4.225,0,0,0-2.742,4.527,4.166,4.166,0,0,0,.2.833l5.552,2.516.9-.327h.007l28.168-10.213,15.816-5.734A4.22,4.22,0,0,0,616.736,417.716Z" transform="translate(-447.562 -343.471)" fill="#fff"/>
    <path id="Path_170" data-name="Path 170" d="M577.2,286.836a4.224,4.224,0,0,0-5.4-2.526l-17.438,6.321a4.217,4.217,0,1,0,2.874,7.93l5.518-2,3.653-1.326,8.271-3A4.22,4.22,0,0,0,577.2,286.836Z" transform="translate(-439.645 -256.737)" fill="#fff"/>
    <path id="Path_171" data-name="Path 171" d="M667.86,317.2H586.234a2.868,2.868,0,0,0-2.415,1.326,2.838,2.838,0,0,0-.452,1.541v54.966l23.507,10.655,3.312,1.5,5.231,2.371a2.368,2.368,0,0,0,1.95,0l5.231-2.371,16.373-7.421,15.26-6.918,16.5-7.475v-45.31A2.869,2.869,0,0,0,667.86,317.2Z" transform="translate(-460.71 -278.697)" fill="#ec4899"/>
    <path id="Path_172" data-name="Path 172" d="M681.479,431.2h-47.9a4.215,4.215,0,0,0-4.21,4.051,1.359,1.359,0,0,0-.007.165,4.222,4.222,0,0,0,4.216,4.216h47.9a4.216,4.216,0,0,0,0-8.432Z" transform="translate(-491.193 -354.245)" fill="#fff"/>
    <path id="Path_173" data-name="Path 173" d="M684.208,478.7a4.186,4.186,0,0,0-2.729-1.005h-47.9a4.216,4.216,0,0,0,0,8.432h35.872l15.26-6.918A4.247,4.247,0,0,0,684.208,478.7Z" transform="translate(-491.194 -385.061)" fill="#fff"/>
    <path id="Path_174" data-name="Path 174" d="M662.877,524.7l5.231,2.371a2.368,2.368,0,0,0,1.95,0l5.231-2.371Z" transform="translate(-513.401 -416.208)" fill="#fff"/>
    <path id="Path_175" data-name="Path 175" d="M699.594,372.464a4.218,4.218,0,0,0-3.96-2.769H677.083a4.22,4.22,0,0,0-3.838,2.476,4.167,4.167,0,0,0-.378,1.74,4.222,4.222,0,0,0,4.216,4.216h18.551a4.216,4.216,0,0,0,3.96-5.663Z" transform="translate(-520.021 -313.489)" fill="#fff"/>
    <path id="Path_176" data-name="Path 176" d="M551.787,455.716l-16.372,7.421-3.875,1.757a1.692,1.692,0,0,1-1.39,0l-3.875-1.757h-1.636l5.231,2.371a2.368,2.368,0,0,0,1.95,0l5.231-2.371,16.373-7.421Zm0,0-16.372,7.421-3.875,1.757a1.692,1.692,0,0,1-1.39,0l-3.875-1.757h-1.636l5.231,2.371a2.368,2.368,0,0,0,1.95,0l5.231-2.371,16.373-7.421Zm0,0-16.372,7.421-3.875,1.757a1.692,1.692,0,0,1-1.39,0l-3.875-1.757h-1.636l5.231,2.371a2.368,2.368,0,0,0,1.95,0l5.231-2.371,16.373-7.421Zm54.95-23.2a2.578,2.578,0,0,0-.408-.331,2.348,2.348,0,0,0-2.253-.165l-35.9,16.271-16.39,7.427-16.373,7.421-3.875,1.757a1.692,1.692,0,0,1-1.39,0l-3.876-1.757-4.038-1.832-24.41-11.06-.007,0-6.655-3.019-19.87-9.006-13.681-6.2a2.058,2.058,0,0,0-.435-.145,2.263,2.263,0,0,0-1.009-.02,2.367,2.367,0,0,0-1.892,2.314v84.706a2.364,2.364,0,0,0,2.361,2.361H605.05a2.364,2.364,0,0,0,2.361-2.361V434.166A2.351,2.351,0,0,0,606.736,432.513Zm0,86.359a1.687,1.687,0,0,1-1.686,1.687H456.638a1.687,1.687,0,0,1-1.686-1.687V434.166a1.687,1.687,0,0,1,.772-1.417,1.743,1.743,0,0,1,.543-.229,1.523,1.523,0,0,1,.172-.027,1.319,1.319,0,0,1,.2-.013,1.677,1.677,0,0,1,.695.152l14.281,6.473,19.752,8.952,5.552,2.516.9.408,23.507,10.655,3.312,1.5,5.231,2.371a2.368,2.368,0,0,0,1.95,0l5.231-2.371,16.372-7.421,15.26-6.918,35.673-16.167a1.687,1.687,0,0,1,1.609.118.629.629,0,0,1,.078.054.423.423,0,0,1,.074.061,1.673,1.673,0,0,1,.621,1.3Zm-54.95-63.156-16.372,7.421-3.875,1.757a1.692,1.692,0,0,1-1.39,0l-3.875-1.757h-1.636l5.231,2.371a2.368,2.368,0,0,0,1.95,0l5.231-2.371,16.373-7.421Zm0,0-16.372,7.421-3.875,1.757a1.692,1.692,0,0,1-1.39,0l-3.875-1.757h-1.636l5.231,2.371a2.368,2.368,0,0,0,1.95,0l5.231-2.371,16.373-7.421Zm-54.869-5.144.9.408v-.735Zm54.869,5.144-16.372,7.421-3.875,1.757a1.692,1.692,0,0,1-1.39,0l-3.875-1.757h-1.636l5.231,2.371a2.368,2.368,0,0,0,1.95,0l5.231-2.371,16.373-7.421Z" transform="translate(-375.162 -354.649)" fill="#3f3d56"/>
    <path id="Path_177" data-name="Path 177" d="M319.7,695.61H281.586a.337.337,0,0,1,0-.675H319.7a.337.337,0,0,1,0,.675Z" transform="translate(-260.496 -529.026)" fill="#3f3d56"/>
    <path id="Path_178" data-name="Path 178" d="M314.993,337.932a3.61,3.61,0,0,1,.334-6.587c2.5-.965,5.3,1,7.923.444s4.123-3.68,3.5-6.277a8.346,8.346,0,0,0-5.395-5.487,11.63,11.63,0,0,0-10.032.919,10.71,10.71,0,0,0-5.041,8.646,9.929,9.929,0,0,0,4.8,8.7,3.115,3.115,0,0,0,2.19.519A6.1,6.1,0,0,0,314.993,337.932Z" transform="translate(-277.084 -280.088)" fill="#2f2e41"/>
    <path id="Path_179" data-name="Path 179" d="M254.947,309.215A18.641,18.641,0,0,0,246.3,302.7a13.756,13.756,0,0,0-10.672.588,10.938,10.938,0,0,0-5.931,8.678c-.421,6.08,4.774,11.248,5.307,17.319a11.646,11.646,0,0,1-15.285,12.066,12.261,12.261,0,0,0,9.45,2.682,11.4,11.4,0,0,0,8.111-5.458,15.956,15.956,0,0,0,1.836-6.727,29.891,29.891,0,0,0-1.17-10.96c-.583-1.936-1.373-3.929-1-5.917a5.385,5.385,0,0,1,4.194-4.2,9.553,9.553,0,0,1,4.974.784,15.529,15.529,0,0,0,4.9,1.3,4.374,4.374,0,0,0,4.207-2.307Z" transform="translate(-219.723 -268.561)" fill="#2f2e41"/>
  </g>
</svg>
