<svg xmlns="http://www.w3.org/2000/svg" width="249.759" height="184.064" viewBox="0 0 249.759 184.064">
  <g id="undraw_secure_login_pdn4" transform="translate(-22.166)">
    <path id="Path_386" data-name="Path 386" d="M324.272,241.134c9.381-3.99,21.065-1.462,32.476.293.106-2.125,1.393-4.711.045-6.193-1.638-1.8-1.487-3.693-.5-5.6,2.52-4.867-1.091-10.045-4.737-14.351a8.075,8.075,0,0,0-6.74-2.829l-6.754.482a8.089,8.089,0,0,0-7.182,5.781h0c-1.613,2.193-2.476,4.381-1.932,6.557-2.416,1.651-2.822,3.644-1.736,5.89a3.386,3.386,0,0,1-.042,4.13,19.07,19.07,0,0,0-2.835,5.631Z" transform="translate(-281.686 -199.369)" fill="#2f2e41"/>
    <path id="Path_387" data-name="Path 387" d="M596.1,627.05H404.911a6.411,6.411,0,0,1-6.411-6.411h0a864.172,864.172,0,0,1,204.015,0h0a6.411,6.411,0,0,1-6.411,6.411Z" transform="translate(-330.59 -464.328)" fill="#2f2e41"/>
    <path id="Path_388" data-name="Path 388" d="M602.515,370.512,398.5,370.135l23.645-39.785.113-.189V242.481a8.1,8.1,0,0,1,8.1-8.1h139.16a8.1,8.1,0,0,1,8.1,8.1v88.284Z" transform="translate(-330.59 -213.824)" fill="#3f3d56"/>
    <path id="Path_389" data-name="Path 389" d="M486.252,250.957a2.643,2.643,0,0,0-2.64,2.64v79.947a2.643,2.643,0,0,0,2.64,2.64H626.914a2.643,2.643,0,0,0,2.64-2.64V253.6a2.643,2.643,0,0,0-2.64-2.64Z" transform="translate(-386.665 -224.748)" fill="#fff"/>
    <path id="Path_390" data-name="Path 390" d="M476.823,531.718a1.134,1.134,0,0,0-1.028.658l-7.286,15.839a1.131,1.131,0,0,0,1.028,1.6H622.751a1.131,1.131,0,0,0,1.012-1.637l-7.919-15.838a1.126,1.126,0,0,0-1.012-.625Z" transform="translate(-376.647 -409.724)" fill="#2f2e41"/>
    <circle id="Ellipse_49" data-name="Ellipse 49" cx="1.697" cy="1.697" r="1.697" transform="translate(167.655 21.495)" fill="#fff"/>
    <path id="Path_391" data-name="Path 391" d="M645.986,593.619a1.133,1.133,0,0,0-1.092.837l-1.828,6.788a1.131,1.131,0,0,0,1.092,1.426h34.756a1.131,1.131,0,0,0,1.069-1.5l-2.35-6.788a1.132,1.132,0,0,0-1.069-.761Z" transform="translate(-491.694 -450.506)" fill="#2f2e41"/>
    <path id="Path_392" data-name="Path 392" d="M419.788,337.135v1.508H264.306l.117-.188v-1.32Z" transform="translate(-172.751 -222.117)" fill="#2f2e41"/>
    <circle id="Ellipse_50" data-name="Ellipse 50" cx="26.398" cy="26.398" r="26.398" transform="translate(216.302 0)" fill="#ec4899"/>
    <path id="Path_393" data-name="Path 393" d="M897.738,253.908H875.866a1.51,1.51,0,0,1-1.508-1.508V239.2a1.51,1.51,0,0,1,1.508-1.508h21.872a1.51,1.51,0,0,1,1.508,1.508v13.2a1.51,1.51,0,0,1-1.508,1.508ZM875.866,239.2v13.2h21.873V239.2Z" transform="translate(-644.103 -216.009)" fill="#fff"/>
    <path id="Path_394" data-name="Path 394" d="M904.514,215.9H890.938v-6.034c0-4.37,2.855-7.542,6.788-7.542s6.788,3.172,6.788,7.542Zm-12.068-1.508h10.559v-4.525c0-3.553-2.171-6.034-5.279-6.034s-5.279,2.481-5.279,6.034Z" transform="translate(-655.026 -192.705)" fill="#fff"/>
    <circle id="Ellipse_51" data-name="Ellipse 51" cx="1.508" cy="1.508" r="1.508" transform="translate(241.191 27.906)" fill="#fff"/>
    <path id="Path_395" data-name="Path 395" d="M643,361.433H534.292a2.016,2.016,0,0,1-2.013-2.013V332.454a2.015,2.015,0,0,1,2.013-2.013H643a2.015,2.015,0,0,1,2.013,2.013V359.42A2.015,2.015,0,0,1,643,361.433ZM534.292,331.247a1.209,1.209,0,0,0-1.208,1.208V359.42a1.209,1.209,0,0,0,1.208,1.208H643a1.209,1.209,0,0,0,1.208-1.208V332.454A1.209,1.209,0,0,0,643,331.247Z" transform="translate(-418.729 -277.115)" fill="#e6e6e6"/>
    <circle id="Ellipse_52" data-name="Ellipse 52" cx="8.2" cy="8.2" r="8.2" transform="translate(124.254 59.587)" fill="#e6e6e6"/>
    <path id="Path_396" data-name="Path 396" d="M640.564,356.805a1.367,1.367,0,0,0,0,2.733h64.431a1.367,1.367,0,0,0,0-2.733Z" transform="translate(-489.17 -294.485)" fill="#e6e6e6"/>
    <path id="Path_397" data-name="Path 397" d="M640.564,380.842a1.367,1.367,0,0,0,0,2.733h27.725a1.367,1.367,0,1,0,0-2.733Z" transform="translate(-489.17 -310.321)" fill="#e6e6e6"/>
    <path id="Path_398" data-name="Path 398" d="M427.723,359.836l-20.1,10.684-.254-8.9a59.513,59.513,0,0,0,18.569-6.1l2.1-5.193a3.52,3.52,0,0,1,5.983-.914h0a3.52,3.52,0,0,1-.31,4.8Z" transform="translate(-336.436 -288.763)" fill="#ffb8b8"/>
    <path id="Path_399" data-name="Path 399" d="M322.829,537.249h0a3.949,3.949,0,0,1,.5-3.194l4.414-6.775a7.714,7.714,0,0,1,10.008-2.64h0c-1.855,3.158-1.6,5.928.641,8.336a40.131,40.131,0,0,0-9.531,6.5,3.949,3.949,0,0,1-6.034-2.224Z" transform="translate(-280.644 -404.491)" fill="#2f2e41"/>
    <path id="Path_400" data-name="Path 400" d="M398.182,479.991h0a7.575,7.575,0,0,1-6.438,3.677l-29.326.222-1.272-7.377,12.973-3.816L363.181,464.3l11.955-13.991,21.715,20.239A7.575,7.575,0,0,1,398.182,479.991Z" transform="translate(-305.98 -356.091)" fill="#2f2e41"/>
    <path id="Path_401" data-name="Path 401" d="M326.186,491.142h-6.868c-6.167-42.269-12.443-84.657,6.1-100.478l21.876,3.561-2.8,18.569-12.21,13.991Z" transform="translate(-274.326 -316.792)" fill="#2f2e41"/>
    <path id="Path_402" data-name="Path 402" d="M341.812,689.778h0a3.949,3.949,0,0,1-3.194-.5l-7.457-1a7.714,7.714,0,0,1-2.641-10.008h0c3.158,1.855,5.928,1.6,8.336-.641,1.7,3.435,4.5,3.225,7.18,6.119a3.949,3.949,0,0,1-2.224,6.034Z" transform="translate(-283.915 -505.853)" fill="#2f2e41"/>
    <path id="Path_403" data-name="Path 403" d="M374.61,274.007l-12.719-3.053c2.112-4.324,2.286-9.135,1.272-14.245l8.649-.254A66.4,66.4,0,0,0,374.61,274.007Z" transform="translate(-306.471 -228.37)" fill="#ffb8b8"/>
    <path id="Path_404" data-name="Path 404" d="M363.43,335.076c-9.259,6.309-15.8.216-20.793-9.185.694-5.753-.43-12.637-2.51-20.117a13.693,13.693,0,0,1,8.36-16.513h0l10.938,4.579c9.288,7.571,11.116,15.771,7.631,24.42Z" transform="translate(-291.795 -249.984)" fill="#ec4899"/>
    <path id="Path_405" data-name="Path 405" d="M287.243,306.4l-10.175,5.342,18.061,10.684,2.513,6.2a3.288,3.288,0,0,1-1.975,4.343h0a3.288,3.288,0,0,1-4.354-2.915l-.254-4.32L268.1,318.159a5.368,5.368,0,0,1-3.368-3.279h0a5.368,5.368,0,0,1,2.014-6.244l18.459-12.663Z" transform="translate(-242.252 -254.406)" fill="#ffb8b8"/>
    <path id="Path_406" data-name="Path 406" d="M334.619,302.232c-4.244-1.86-8.1.16-12.973,1.781l-.763-13.482c4.836-2.578,9.448-3.273,13.736-1.272Z" transform="translate(-279.453 -249.219)" fill="#ec4899"/>
    <circle id="Ellipse_53" data-name="Ellipse 53" cx="8.12" cy="8.12" r="8.12" transform="translate(52.122 18.522)" fill="#ffb8b8"/>
    <path id="Path_407" data-name="Path 407" d="M369.582,235.153c-8.04.787-14.166-.527-18.082-4.271v-3.015h17.4Z" transform="translate(-299.625 -209.535)" fill="#2f2e41"/>
  </g>
</svg>
