<svg xmlns="http://www.w3.org/2000/svg" width="243.916" height="132.4" viewBox="0 0 243.916 132.4">
  <g id="undraw_account_re_o7id" transform="translate(-5.228)">
    <rect id="Rectangle_80" data-name="Rectangle 80" width="142" height="132" transform="translate(107 0.4)" fill="#fff"/>
    <path id="Path_141" data-name="Path 141" d="M682.8,362.9H544.073a1.614,1.614,0,0,1-1.612-1.612V232.454a1.615,1.615,0,0,1,1.612-1.612H682.8a1.615,1.615,0,0,1,1.612,1.612V361.286A1.614,1.614,0,0,1,682.8,362.9ZM544.073,231.485a.969.969,0,0,0-.967.967V361.286a.969.969,0,0,0,.967.967H682.8a.968.968,0,0,0,.967-.967V232.454a.969.969,0,0,0-.967-.967Z" transform="translate(-435.269 -230.842)" fill="#e6e6e6"/>
    <path id="Path_142" data-name="Path 142" d="M762.281,341.671a1.095,1.095,0,0,0,0,2.189h60.067a1.095,1.095,0,0,0,0-2.189Z" transform="translate(-587.926 -308.194)" fill="#e6e6e6"/>
    <path id="Path_143" data-name="Path 143" d="M762.281,363.417a1.095,1.095,0,1,0,0,2.189h30.666a1.095,1.095,0,1,0,0-2.189Z" transform="translate(-587.926 -323.371)" fill="#e6e6e6"/>
    <path id="Path_142-2" data-name="Path 142" d="M588.475,468.671a1.095,1.095,0,1,0,0,2.189H701.1a1.095,1.095,0,1,0,0-2.189Z" transform="translate(-466.62 -396.832)" fill="#e6e6e6"/>
    <path id="Path_143-2" data-name="Path 143" d="M588.475,490.417a1.095,1.095,0,0,0,0,2.189H671.7a1.095,1.095,0,0,0,0-2.189Z" transform="translate(-466.62 -412.009)" fill="#e6e6e6"/>
    <path id="Path_142-3" data-name="Path 142" d="M588.475,511.671a1.095,1.095,0,1,0,0,2.189H701.1a1.095,1.095,0,1,0,0-2.189Z" transform="translate(-466.62 -426.843)" fill="#e6e6e6"/>
    <path id="Path_143-3" data-name="Path 143" d="M588.475,533.417a1.095,1.095,0,0,0,0,2.189H671.7a1.095,1.095,0,1,0,0-2.189Z" transform="translate(-466.62 -442.02)" fill="#e6e6e6"/>
    <path id="Path_154" data-name="Path 154" d="M509.637,322.28H422.561a1.614,1.614,0,0,1-1.612-1.612V282.455a1.614,1.614,0,0,1,1.612-1.612h87.075a1.614,1.614,0,0,1,1.612,1.612v38.213A1.614,1.614,0,0,1,509.637,322.28Z" transform="translate(-350.461 -265.739)" fill="#ec4899"/>
    <path id="Path_154-2" data-name="Path 154" d="M881.567,598.355H848.561a1.614,1.614,0,0,1-1.612-1.612v-5.288a1.614,1.614,0,0,1,1.612-1.612h33.006a1.614,1.614,0,0,1,1.612,1.612v5.288A1.614,1.614,0,0,1,881.567,598.355Z" transform="translate(-647.782 -481.401)" fill="#ec4899"/>
    <path id="Path_180" data-name="Path 180" d="M310.769,368.6a3.352,3.352,0,0,1-.932-4.432,2.766,2.766,0,0,1,.3-.381l.091-28.231,4.2.783.184,27.766a3.294,3.294,0,0,1,.375,3.908A2.89,2.89,0,0,1,310.769,368.6Z" transform="translate(-272.577 -303.927)" fill="#ffb8b8"/>
    <path id="Path_181" data-name="Path 181" d="M198.682,384.745h4.326l2.058-16.687h-6.385Z" transform="translate(-138.667 -256.881)" fill="#ffb8b8"/>
    <path id="Path_182" data-name="Path 182" d="M382.626,649.466h8.52a5.43,5.43,0,0,1,5.43,5.429v.177H382.626Z" transform="translate(-323.714 -523.014)" fill="#2f2e41"/>
    <path id="Path_183" data-name="Path 183" d="M65.5,384.745h4.326l2.058-16.687H65.5Z" transform="translate(-45.718 -256.881)" fill="#ffb8b8"/>
    <path id="Path_184" data-name="Path 184" d="M249.449,649.466h8.52a5.43,5.43,0,0,1,5.43,5.429v.177H249.449Z" transform="translate(-230.766 -523.014)" fill="#2f2e41"/>
    <path id="Path_185" data-name="Path 185" d="M289.2,470.386l-.363-2.176a1.724,1.724,0,0,1-.9-.72,3.305,3.305,0,0,1-.185-2.574l-2.919-24.651L269.6,424.455l-9.776,23.58-3.87,18.66v2.7l-7.727.992.352-2.541a1.48,1.48,0,0,1-.7-.625,4.36,4.36,0,0,1,.018-3.4l.02-.066-.025-.227c-.018-.159.1-15.4,4.629-22.952l4.538-22.927c-.118-.323-.7-2.2.367-5.379,1.053-3.135,4-8.185,12.048-14.442l.028-.021.034-.007c.089-.018,8.968-1.784,13.56,4.221l.031.041v.051c0,.371-.008,9.011-.691,10.928l10.9,20.035c.212.225,2.117,2.425,1.44,8.208l1.76,19.715c.2.384,2.023,4.006.015,5.439l.36,2.489Z" transform="translate(-229.437 -347.183)" fill="#2f2e41"/>
    <path id="Path_186" data-name="Path 186" d="M310.167,328.52a6.83,6.83,0,0,1-6.429-4.056l-.033-.065,4.1-8.692a4.765,4.765,0,0,1,8.708,3.868l-3.545,8.5-.062.023A8.864,8.864,0,0,1,310.167,328.52Z" transform="translate(-268.633 -288.164)" fill="#ec4899"/>
    <path id="Path_187" data-name="Path 187" d="M332.832,347l-12.926-6.1,1.777-21.677,3.239-3.959.628-.134a16.517,16.517,0,0,1,8.678.481l.062.021,5.321,11.351c.033.057,3.87,6.831-1.434,10.4Z" transform="translate(-279.94 -289.41)" fill="#ec4899"/>
    <path id="Path_188" data-name="Path 188" d="M375.419,375.951a3.176,3.176,0,0,0-.446.228l-13.621-6.231L361,366.327l-5.535-.187,0,6.472a2.416,2.416,0,0,0,1.738,2.321l16.356,4.78a3.17,3.17,0,1,0,1.861-3.762Z" transform="translate(-304.757 -325.271)" fill="#ffb8b8"/>
    <path id="Path_189" data-name="Path 189" d="M354.733,334.873a6.892,6.892,0,0,1-4.985-2.218l-.052-.052,1.136-9.543a4.765,4.765,0,0,1,9.485.91l-.671,9.183-.051.041A8.663,8.663,0,0,1,354.733,334.873Z" transform="translate(-300.732 -292.271)" fill="#ec4899"/>
    <circle id="Ellipse_29" data-name="Ellipse 29" cx="8.667" cy="8.667" r="8.667" transform="translate(38.788 17.588) rotate(-61.337)" fill="#ffb8b8"/>
    <path id="Path_190" data-name="Path 190" d="M259.047,244.7a7.336,7.336,0,0,0-4.83-5.423,10.458,10.458,0,0,0-7.432.4,12.344,12.344,0,0,0-1.143.549,5.293,5.293,0,0,0-4.875-2.476c-2.319.123-4.414,1.351-6.429,2.507s-4.176,2.307-6.5,2.254c-4.2-.1-7.319-3.988-11.354-5.144a9.08,9.08,0,0,0-9.993,13.859c1.722-3.086,5.765-4.128,9.274-3.708s6.778,1.958,10.215,2.777,7.418.784,10.08-1.539c1.51-1.318,2.4-3.2,3.712-4.714a6.124,6.124,0,0,1,3.449-2.091,10.468,10.468,0,0,0-2.833,4.2,8.725,8.725,0,0,0,1.669,8.751c2.307,2.429,5.928,3.076,9.277,3.037l.07-.071c-1.025-1.535-1.835-3.663-.706-5.124,1.115-1.442,3.313-1.229,5.02-1.867A5.683,5.683,0,0,0,259.047,244.7Z" transform="translate(-199.677 -235.156)" fill="#2f2e41"/>
    <path id="Path_155" data-name="Path 155" d="M555.907,325.212c-.378,0-.684.492-.683,1.1s.306,1.091.683,1.092h32.281c.378,0,.684-.492.683-1.1s-.306-1.091-.683-1.092Z" transform="translate(-444.177 -296.706)" fill="#fff"/>
    <path id="Path_156" data-name="Path 156" d="M555.907,346.212c-.378,0-.684.492-.683,1.1s.306,1.091.683,1.092h32.281c.378,0,.684-.492.683-1.1s-.306-1.091-.683-1.093Z" transform="translate(-444.177 -311.363)" fill="#fff"/>
    <path id="Path_157" data-name="Path 157" d="M555.907,366.958c-.378,0-.684.492-.683,1.1s.306,1.091.683,1.092H569.8c.378,0,.684-.492.683-1.1s-.306-1.091-.683-1.092Z" transform="translate(-444.177 -325.842)" fill="#fff"/>
    <circle id="Ellipse_30" data-name="Ellipse 30" cx="8.76" cy="8.76" r="8.76" transform="translate(86.58 27.063)" fill="#fff"/>
  </g>
</svg>
