<svg xmlns="http://www.w3.org/2000/svg" width="236.882" height="39.909" viewBox="0 0 236.882 39.909">
  <g id="logo-name" transform="translate(-0.002 0.005)">
    <path id="Path_56" data-name="Path 56" d="M80.9,165.392h0a5.207,5.207,0,0,1-7.111-1.905l-9.812-17a5.206,5.206,0,0,1,1.905-7.111h0A5.2,5.2,0,0,1,73,141.286l9.813,17A5.207,5.207,0,0,1,80.9,165.392Z" transform="translate(-63.28 -131.543)" fill="#ff9800"/>
    <rect id="Rectangle_28" data-name="Rectangle 28" width="30.035" height="10.411" rx="5.205" transform="translate(7.887 31.245) rotate(-60)" fill="#ff9800"/>
    <circle id="Ellipse_11" data-name="Ellipse 11" cx="5.237" cy="5.237" r="5.237" transform="translate(38.872 7.352)" fill="#ff9800"/>
    <rect id="Rectangle_29" data-name="Rectangle 29" width="10.411" height="30.035" rx="5.205" transform="translate(17.674 10.441) rotate(-30)" fill="#ff9800"/>
    <path id="Path_57" data-name="Path 57" d="M824.718,186.012q-.831,3.157-1.766,6.271t-1.973,6.27h-4.813q-.749-1.744-1.623-4.153t-1.812-5.253q-.937-2.845-1.916-6.022t-1.9-6.416h6.52q.33,1.495.727,3.261T817,183.6q.439,1.869.92,3.759T818.9,191q.541-1.827,1.06-3.737t1-3.758q.477-1.847.914-3.572t.767-3.218h4.484q.332,1.495.748,3.218t.872,3.572q.456,1.847.955,3.758T830.737,191q.5-1.744,1-3.633t.937-3.759q.438-1.868.836-3.633t.731-3.26h6.437q-.917,3.237-1.9,6.416t-1.915,6.022q-.937,2.844-1.833,5.253t-1.645,4.153h-4.817q-1.039-3.156-2.035-6.27T824.718,186.012Z" transform="translate(-745.411 -166.332)" fill="#ff9800"/>
    <path id="Path_58" data-name="Path 58" d="M1223.819,181.335a14.21,14.21,0,0,1-.747,4.713,10.24,10.24,0,0,1-2.16,3.655,9.715,9.715,0,0,1-3.384,2.346,11.326,11.326,0,0,1-4.423.83,11.181,11.181,0,0,1-4.381-.83,9.71,9.71,0,0,1-3.385-2.346,10.731,10.731,0,0,1-2.2-3.655,13.535,13.535,0,0,1-.789-4.713,13.04,13.04,0,0,1,.81-4.692,10.646,10.646,0,0,1,2.242-3.613,10.073,10.073,0,0,1,3.407-2.326,10.958,10.958,0,0,1,4.3-.83,11.07,11.07,0,0,1,4.34.83,9.854,9.854,0,0,1,3.385,2.326,10.544,10.544,0,0,1,2.2,3.613A13.344,13.344,0,0,1,1223.819,181.335Zm-6.312,0a7.776,7.776,0,0,0-1.142-4.506,3.737,3.737,0,0,0-3.26-1.64,3.787,3.787,0,0,0-3.281,1.64,7.674,7.674,0,0,0-1.163,4.506,7.874,7.874,0,0,0,1.163,4.547,3.76,3.76,0,0,0,3.281,1.682,3.7,3.7,0,0,0,3.26-1.682A7.992,7.992,0,0,0,1217.507,181.335Z" transform="translate(-1105.332 -160.078)" fill="#ff9800"/>
    <path id="Path_59" data-name="Path 59" d="M1523.655,177.279q-.831-.208-1.952-.436a12.053,12.053,0,0,0-2.409-.228,11.344,11.344,0,0,0-1.391.1,8.206,8.206,0,0,0-1.226.229v16.694h-6.188V172.96a37.3,37.3,0,0,1,3.925-1.1,22.659,22.659,0,0,1,5.046-.52q.5,0,1.2.062t1.412.17q.705.1,1.411.249a6.692,6.692,0,0,1,1.2.353Z" transform="translate(-1387.227 -161.419)" fill="#ff9800"/>
    <path id="Path_60" data-name="Path 60" d="M1722.429,73.036q.912-.99,1.887-2.064t1.887-2.129q.913-1.054,1.721-2t1.39-1.651h7.358q-2.2,2.528-4.3,4.828t-4.588,4.744a28.554,28.554,0,0,1,2.574,2.683q1.329,1.561,2.575,3.225T1735.219,84q1.037,1.663,1.744,3.036h-7.116q-.663-1.083-1.513-2.393t-1.8-2.622q-.954-1.311-2.01-2.519a17.007,17.007,0,0,0-2.094-2.04v9.578h-6.188V55.807l6.188-1Z" transform="translate(-1575.452 -54.814)" fill="#ff9800"/>
    <path id="Path_61" data-name="Path 61" d="M2007.261,87.451a15.454,15.454,0,0,1-4.381-.582,6.49,6.49,0,0,1-2.657-1.516,5.009,5.009,0,0,1-1.329-2.367,12.73,12.73,0,0,1-.353-3.135V55.807l6.188-1v23.8a8.189,8.189,0,0,0,.124,1.5,2.585,2.585,0,0,0,.478,1.121,2.522,2.522,0,0,0,1.018.748,5.558,5.558,0,0,0,1.789.374Z" transform="translate(-1833.708 -54.814)" fill="#ff9800"/>
    <path id="Path_62" data-name="Path 62" d="M2137.7,176.71q-1.874,6.312-3.913,11.839t-4.455,10.71a24.339,24.339,0,0,1-1.747,3.177,9.772,9.772,0,0,1-1.914,2.159,6.741,6.741,0,0,1-2.349,1.246,10.643,10.643,0,0,1-3.056.394,12.512,12.512,0,0,1-2.684-.27,11.911,11.911,0,0,1-2.017-.6l1.08-4.94a10.616,10.616,0,0,0,1.7.457,9.656,9.656,0,0,0,1.579.124,3.458,3.458,0,0,0,2.555-.893,7.191,7.191,0,0,0,1.517-2.47q-2.119-4.155-4.238-9.325a116.148,116.148,0,0,1-3.99-11.608h6.558q.417,1.618.98,3.509t1.192,3.82q.624,1.932,1.271,3.759t1.231,3.322q.542-1.5,1.126-3.322t1.146-3.759q.562-1.93,1.084-3.82t.937-3.509Z" transform="translate(-1940.771 -166.332)" fill="#ff9800"/>
    <path id="Path_63" data-name="Path 63" d="M2423.466,54.806a13.559,13.559,0,0,1,3.2.357,15.829,15.829,0,0,1,2.243.681l-1.2,4.94a8.134,8.134,0,0,0-1.807-.56,9.666,9.666,0,0,0-1.806-.187,5.055,5.055,0,0,0-1.889.311,2.917,2.917,0,0,0-1.2.852,3.289,3.289,0,0,0-.623,1.287,6.666,6.666,0,0,0-.187,1.618v1.08h7.641v5.15h-7.641V87.028H2414v-23a9.329,9.329,0,0,1,2.385-6.729Q2418.77,54.8,2423.466,54.806Z" transform="translate(-2213.783 -54.81)" fill="#ff9800"/>
    <path id="Path_64" data-name="Path 64" d="M2603.634,181.549a13.369,13.369,0,0,1,.893-5.087,10.882,10.882,0,0,1,2.346-3.633,9.742,9.742,0,0,1,3.343-2.2,10.47,10.47,0,0,1,3.883-.748,9.65,9.65,0,0,1,7.35,2.845q2.7,2.845,2.7,8.368c0,.359-.015.755-.042,1.183s-.055.81-.085,1.142h-14.036a4.105,4.105,0,0,0,1.789,3.031,7.2,7.2,0,0,0,4.237,1.122,17.876,17.876,0,0,0,3.343-.312,12.759,12.759,0,0,0,2.679-.767l.831,5.025a8.559,8.559,0,0,1-1.33.5,17.34,17.34,0,0,1-1.847.436q-1.022.187-2.18.311a21.715,21.715,0,0,1-2.325.125,13.76,13.76,0,0,1-5.129-.872,10.03,10.03,0,0,1-3.613-2.385,9.482,9.482,0,0,1-2.118-3.592A14.241,14.241,0,0,1,2603.634,181.549Zm14.535-2.367a6.45,6.45,0,0,0-.27-1.533,3.864,3.864,0,0,0-.706-1.33,3.776,3.776,0,0,0-1.2-.955,3.94,3.94,0,0,0-1.807-.374,4.162,4.162,0,0,0-1.789.353,3.691,3.691,0,0,0-1.246.937,4.177,4.177,0,0,0-.766,1.349,8.8,8.8,0,0,0-.395,1.558Z" transform="translate(-2387.265 -160.084)" fill="#ff9800"/>
  </g>
</svg>
